<svg width="66" height="66" viewBox="0 0 66 66" fill="none" xmlns="http://www.w3.org/2000/svg">
<g clip-path="url(#clip0_127_6221)">
<path d="M62.2439 24.7134L63.2161 22.9594C63.475 22.4923 63.3063 21.9039 62.8392 21.6452C62.4503 21.4295 61.9782 21.5114 61.6814 21.8138C57.444 9.23353 45.6116 0.630859 32.1513 0.630859C23.8272 0.630859 16.0013 3.87238 10.1154 9.75844C4.22931 15.6445 0.987793 23.4702 0.987793 31.7943C0.987793 38.8792 3.30504 45.5558 7.68881 51.1019C11.9406 56.4811 17.9241 60.3581 24.5372 62.019C25.9569 62.3755 27.4276 62.5964 29.0335 62.694C29.0535 62.6951 29.0733 62.6958 29.0931 62.6958C29.6003 62.6958 30.026 62.3007 30.0572 61.7876C30.0895 61.2546 29.6839 60.7964 29.1508 60.7639C27.6657 60.6737 26.3106 60.4708 25.0082 60.1436C12.0039 56.8775 2.92141 45.22 2.92141 31.7943C2.92141 15.677 16.0339 2.56448 32.1513 2.56448C44.7372 2.56448 55.8057 10.5824 59.8118 22.3209C59.4167 22.2513 59.0041 22.4333 58.7987 22.8037C58.5399 23.2706 58.7086 23.8592 59.1755 24.1179L60.9024 25.0751C60.9538 25.1058 61.2886 25.298 61.693 25.1687C62.0461 25.0562 62.2094 24.7762 62.2439 24.7134Z" fill="#D3CDBF"/>
<path d="M48.5966 10.7283L11.2134 48.1116C10.8358 48.4893 10.8358 49.1013 11.2134 49.4789C11.4021 49.6676 11.6496 49.762 11.897 49.762C12.1443 49.762 12.3918 49.6676 12.5806 49.4789L49.9638 12.0956C50.3414 11.7179 50.3414 11.1059 49.9638 10.7283C49.5863 10.351 48.9741 10.351 48.5966 10.7283Z" fill="#D3CDBF"/>
<path d="M13.3602 17.0625C9.39677 17.0625 8.05007 22.2214 10.1399 22.2214C10.6736 22.2214 11.1067 21.7889 11.1067 21.2546C11.1067 20.012 12.1176 19.0013 13.36 19.0013C15.4329 19.0013 16.4064 21.5856 14.84 22.954L9.50118 27.619C8.83061 28.205 9.24646 29.3138 10.1373 29.3138H16.5827C17.1167 29.3138 17.5495 28.876 17.5495 28.3419C17.5495 27.8079 17.1167 27.3751 16.5827 27.3751H12.7225L16.1154 24.414C19.0194 21.8797 17.2282 17.0625 13.3602 17.0625Z" fill="#46525E"/>
<path d="M27.2808 24.7964H25.6743L25.6693 18.0304C25.6688 17.4967 25.2362 17.0645 24.7025 17.0645C24.1688 17.0645 23.7357 17.4971 23.7357 18.0313V24.7964H20.2677C20.2877 24.7389 21.8669 20.2039 21.8825 20.1451C22.2251 18.8408 20.4474 18.3758 20.051 19.5181L17.9908 25.4511C17.7729 26.0789 18.2398 26.735 18.9041 26.735H23.7354C23.7352 28.3904 23.6524 28.6628 24.0198 29.0299C24.628 29.6385 25.6742 29.2024 25.6742 28.3439V26.7351H27.2806C27.8147 26.7351 28.2475 26.3024 28.2475 25.7683C28.2476 25.2147 27.8022 24.7964 27.2808 24.7964Z" fill="#46525E"/>
<path d="M42.987 32.9851C42.811 32.7005 42.5002 32.5273 42.1656 32.5273H36.2446C35.7112 32.5273 35.2788 32.9597 35.2788 33.4931C35.2788 34.0265 35.7112 34.4589 36.2446 34.4589H40.604L36.1502 43.3813C35.912 43.8585 36.1058 44.4384 36.583 44.6767C36.7215 44.7459 36.8686 44.7786 37.0135 44.7786C37.368 44.7786 37.7094 44.5827 37.8784 44.2441L43.0296 33.9246C43.1792 33.625 43.1631 33.2697 42.987 32.9851Z" fill="#46525E"/>
<path d="M57.4876 27.952C55.8227 28.2547 54.6135 29.7045 54.6135 31.3965V34.5753C54.6135 36.2678 55.8239 37.7182 57.4891 38.0209L57.8756 38.0911C56.1139 47.5475 48.8584 55.0956 39.5577 57.285C39.321 55.5498 37.8389 54.256 36.0876 54.256H31.8887C30.1375 54.256 28.6555 55.5494 28.419 57.2845C27.7309 62.3306 31.6116 65.8534 35.834 65.6118C52.1058 64.6809 65.1245 51.6261 65.9778 35.3171C66.21 30.8796 62.3341 27.0708 57.4876 27.952Z" fill="#6C7A88"/>
<path d="M35.834 65.611C52.1057 64.6802 65.1244 51.6253 65.9778 35.3164C66.0487 33.961 65.7348 32.6652 65.1287 31.543C63.4777 31.9124 62.2085 33.343 62.1158 35.1145C61.3642 49.4781 49.9705 60.9289 35.6131 61.7502C33.8437 61.8514 32.4215 63.1275 32.058 64.777C33.1928 65.3852 34.4959 65.6876 35.834 65.611Z" fill="#596775"/>
</g>
<defs>
<clipPath id="clip0_127_6221">
<rect width="65" height="65" fill="white" transform="translate(0.987793 0.626953)"/>
</clipPath>
</defs>
</svg>
