<svg width="66" height="66" viewBox="0 0 66 66" fill="none" xmlns="http://www.w3.org/2000/svg">
<g clip-path="url(#clip0_127_6194)">
<path d="M65.1395 24.3744C64.8974 24.1144 64.5485 23.9803 64.1933 23.9803H60.2943C58.7198 17.4648 55.0382 11.5604 49.8384 7.25398C44.2653 2.63886 37.2053 0.0956055 29.957 0.0917969C29.8377 0.0917969 29.7172 0.117314 29.6155 0.179902C29.3412 0.348877 29.2428 0.672607 29.3465 0.949365L32.8271 10.2381C32.9199 10.4861 33.1568 10.6502 33.4215 10.6502C41.6522 10.6502 48.8641 16.1765 51.0873 23.9803H47.7395C47.3842 23.9803 47.0354 24.1144 46.7933 24.3744C46.3371 24.8644 46.3393 25.5827 46.7391 26.0625L54.9911 35.9648C55.2323 36.2543 55.5897 36.4217 55.9665 36.4217C56.3433 36.4217 56.7005 36.2544 56.9418 35.9648L65.1938 26.0625C65.5934 25.5827 65.5956 24.8644 65.1395 24.3744Z" fill="#507BE9"/>
<path d="M29.3062 29.9258C37.0187 29.9258 43.271 23.6735 43.271 15.9609C43.271 8.24837 37.0187 1.99609 29.3062 1.99609C21.5936 1.99609 15.3413 8.24837 15.3413 15.9609C15.3413 23.6735 21.5936 29.9258 29.3062 29.9258Z" fill="#FFEE78"/>
<path d="M43.271 15.9609C43.271 8.24841 37.0187 1.99609 29.3062 1.99609V29.9258C37.0187 29.9258 43.271 23.6735 43.271 15.9609Z" fill="#FCD232"/>
<path d="M29.3062 31.8301C20.5559 31.8301 13.437 24.7112 13.437 15.9609C13.437 7.21069 20.5559 0.0917969 29.3062 0.0917969C38.0564 0.0917969 45.1753 7.21069 45.1753 15.9609C45.1753 24.7112 38.0564 31.8301 29.3062 31.8301ZM29.3062 3.90039C22.656 3.90039 17.2456 9.31075 17.2456 15.9609C17.2456 22.6111 22.656 28.0215 29.3062 28.0215C35.9563 28.0215 41.3667 22.6111 41.3667 15.9609C41.3667 9.31075 35.9563 3.90039 29.3062 3.90039Z" fill="#FCD232"/>
<path d="M41.3667 15.9609C41.3667 22.6111 35.9563 28.0215 29.3062 28.0215V31.8301C38.0564 31.8301 45.1753 24.7112 45.1753 15.9609C45.1753 7.21069 38.0564 0.0917969 29.3062 0.0917969V3.90039C35.9563 3.90039 41.3667 9.31075 41.3667 15.9609Z" fill="#F7B90F"/>
<path d="M34.3843 19.1348C34.3843 16.3347 32.1062 14.0566 29.3062 14.0566C28.6061 14.0566 28.0366 13.4871 28.0366 12.7871C28.0366 12.0871 28.6061 11.5176 29.3062 11.5176C29.9074 11.5176 30.4304 11.9439 30.5498 12.5313C30.759 13.5619 31.7649 14.2278 32.7951 14.0186C33.8257 13.8092 34.4916 12.804 34.2823 11.7733C33.9369 10.0726 32.7494 8.70912 31.2104 8.08248V7.70898C31.2104 6.6573 30.3578 5.80469 29.3062 5.80469C28.2545 5.80469 27.4019 6.6573 27.4019 7.70898V8.08083C25.5429 8.83582 24.228 10.6603 24.228 12.7871C24.228 15.5872 26.5061 17.8652 29.3062 17.8652C30.0062 17.8652 30.5757 18.4347 30.5757 19.1348C30.5757 19.8348 30.0062 20.4043 29.3062 20.4043C28.7049 20.4043 28.1819 19.978 28.0625 19.3906C27.8533 18.36 26.8482 17.6944 25.8172 17.9033C24.7865 18.1127 24.1208 19.1179 24.33 20.1486C24.6754 21.8493 25.8629 23.2129 27.4017 23.8395V24.2129C27.4017 25.2646 28.2543 26.1172 29.306 26.1172C30.3577 26.1172 31.2103 25.2646 31.2103 24.2129V23.841C33.0694 23.0861 34.3843 21.2615 34.3843 19.1348Z" fill="#FCD232"/>
<path d="M29.3062 14.0566V17.8652C30.0062 17.8652 30.5757 18.4347 30.5757 19.1348C30.5757 19.8348 30.0062 20.4043 29.3062 20.4043V26.1172C30.3578 26.1172 31.2104 25.2646 31.2104 24.2129V23.841C33.0694 23.0861 34.3843 21.2616 34.3843 19.1348C34.3843 16.3347 32.1062 14.0566 29.3062 14.0566Z" fill="#F7B90F"/>
<path d="M30.5498 12.5313C30.759 13.5619 31.7649 14.2278 32.7951 14.0186C33.8257 13.8092 34.4915 12.804 34.2823 11.7733C33.9369 10.0726 32.7494 8.70912 31.2104 8.08248V7.70898C31.2104 6.6573 30.3578 5.80469 29.3062 5.80469V11.5176C29.9074 11.5176 30.4304 11.9439 30.5498 12.5313Z" fill="#F7B90F"/>
<path d="M64.6838 44.6451C63.2763 42.6349 60.5056 42.1464 58.4955 43.5539L44.8742 53.0917C44.3406 53.4653 43.705 53.6656 43.0538 53.6656H32.9878V62.5523H43.8542C45.8083 62.5523 47.7149 61.9512 49.3155 60.8304L63.5925 50.8334C65.6028 49.4259 66.0914 46.6553 64.6838 44.6451Z" fill="#FABE8C"/>
<path d="M44.8742 53.0929C44.3406 53.4665 43.705 53.6668 43.0538 53.6668L32.9878 52.8863V57.4754H43.271C47.8211 57.4754 51.5229 53.7736 51.5229 49.2235C51.5229 48.9669 51.5095 48.7135 51.4865 48.4629L44.8742 53.0929Z" fill="#E6A578"/>
<path d="M64.6838 44.6455C63.2763 42.6353 60.5056 42.1468 58.4955 43.5543L47.0396 51.5759C47.4667 50.8932 47.7144 50.0871 47.7144 49.2227C47.7144 46.7687 45.725 44.7793 43.271 44.7793H32.48L31.2379 43.8477C28.7642 41.9924 25.699 40.9707 22.6068 40.9707C20.0001 40.9707 17.441 41.6795 15.2058 43.0206C15.2058 43.0206 13.0881 44.2913 11.8223 45.0507C11.2487 45.3949 10.8979 46.0147 10.8979 46.6836V60.6484C10.8979 61.7001 11.7506 62.5527 12.8022 62.5527H43.8542C45.8083 62.5527 47.7149 61.9516 49.3155 60.8307L63.5925 50.8338C65.6028 49.4263 66.0914 46.6557 64.6838 44.6455Z" fill="#FFD2AA"/>
<path d="M32.9878 62.5523H43.8542C45.8083 62.5523 47.7149 61.9512 49.3155 60.8304L63.5925 50.8334C65.6027 49.4259 66.0912 46.6553 64.6837 44.6451C63.2761 42.6349 60.5055 42.1464 58.4953 43.5539L47.0395 51.5755C47.4667 50.8928 47.7144 50.0867 47.7144 49.2223C47.7144 46.7683 45.725 44.7789 43.271 44.7789H32.9878V62.5523Z" fill="#FABE8C"/>
<path d="M51.4865 48.4629L47.0396 51.5767C47.0121 51.6207 46.9845 51.6649 46.9554 51.7078C46.157 52.8897 44.8047 53.6668 43.271 53.6668H29.9409C28.8892 53.6668 28.0366 54.5194 28.0366 55.5711C28.0366 56.6228 28.8892 57.4754 29.9409 57.4754H43.271C47.8211 57.4754 51.5229 53.7736 51.5229 49.2235C51.5229 48.9669 51.5095 48.7135 51.4865 48.4629Z" fill="#FABE8C"/>
<path d="M12.8022 65.0918H2.39209C1.34041 65.0918 0.487793 64.2392 0.487793 63.1875V41.6055C0.487793 40.5538 1.34041 39.7012 2.39209 39.7012H12.8022C13.8539 39.7012 14.7065 40.5538 14.7065 41.6055V63.1875C14.7065 64.2392 13.8539 65.0918 12.8022 65.0918Z" fill="#6496F7"/>
<path d="M51.4865 48.4629L47.0396 51.5767C47.0121 51.6207 46.9845 51.6649 46.9554 51.7078C46.157 52.8897 44.8047 53.6668 43.271 53.6668H32.9878V57.4754H43.271C47.8211 57.4754 51.5229 53.7736 51.5229 49.2235C51.5229 48.9669 51.5095 48.7135 51.4865 48.4629Z" fill="#E6A578"/>
</g>
<defs>
<clipPath id="clip0_127_6194">
<rect width="65" height="65" fill="white" transform="translate(0.487793 0.0917969)"/>
</clipPath>
</defs>
</svg>
