<svg width="80" height="20" viewBox="0 0 80 20" fill="none" xmlns="http://www.w3.org/2000/svg">
<circle cx="9.70874" cy="9.70874" r="9.70874" fill="#151875"/>
<path d="M10.8203 13.9791V9.7352H12.252L12.4648 8.07358H10.8203V7.0152C10.8203 6.53571 10.9539 6.20743 11.642 6.20743H12.514V4.726C12.0897 4.68054 11.6633 4.65858 11.2366 4.66024C9.97107 4.66024 9.1022 5.4328 9.1022 6.85105V8.07047H7.67981V9.73209H9.10531V13.9791H10.8203Z" fill="white"/>
<circle cx="70.2913" cy="9.70874" r="9.70874" fill="#151875"/>
<path d="M75.9321 5.66303C75.4997 5.85461 75.0352 5.98406 74.547 6.04257C75.0508 5.74111 75.4277 5.26664 75.6074 4.70769C75.1341 4.98885 74.616 5.18675 74.0758 5.2928C73.7125 4.9049 73.2313 4.64779 72.7069 4.5614C72.1825 4.475 71.6442 4.56415 71.1757 4.815C70.7072 5.06586 70.3346 5.46438 70.1157 5.9487C69.8969 6.43302 69.8441 6.97604 69.9655 7.49345C69.0064 7.44529 68.0681 7.196 67.2115 6.76175C66.355 6.3275 65.5993 5.718 64.9936 4.9728C64.7864 5.33008 64.6674 5.74432 64.6674 6.18549C64.6671 6.58264 64.7649 6.9737 64.9521 7.32399C65.1392 7.67428 65.41 7.97295 65.7402 8.19351C65.3572 8.18133 64.9826 8.07783 64.6477 7.89164V7.9227C64.6476 8.47972 64.8403 9.0196 65.193 9.45073C65.5457 9.88186 66.0367 10.1777 66.5827 10.288C66.2274 10.3842 65.8548 10.3983 65.4932 10.3294C65.6473 10.8087 65.9474 11.2278 66.3514 11.5281C66.7555 11.8284 67.2434 11.9948 67.7467 12.004C66.8923 12.6748 65.837 13.0386 64.7507 13.037C64.5583 13.0371 64.366 13.0258 64.1749 13.0034C65.2776 13.7123 66.5611 14.0886 67.872 14.0871C72.3096 14.0871 74.7354 10.4118 74.7354 7.22419C74.7354 7.12063 74.7329 7.01604 74.7282 6.91248C75.2001 6.57123 75.6074 6.14867 75.931 5.66458L75.9321 5.66303Z" fill="white"/>
<circle cx="40" cy="9.70874" r="9.70874" fill="#151875"/>
<path d="M44.2446 7.40715C44.2393 7.01499 44.1659 6.62671 44.0276 6.25971C43.9077 5.95015 43.7245 5.669 43.4897 5.43425C43.255 5.1995 42.9738 5.01629 42.6642 4.89635C42.302 4.76035 41.9192 4.68681 41.5323 4.67887C41.0342 4.6566 40.8763 4.65039 39.6118 4.65039C38.3474 4.65039 38.1853 4.65039 37.6908 4.67887C37.3041 4.68687 36.9215 4.76041 36.5594 4.89635C36.2498 5.01621 35.9686 5.19938 35.7338 5.43415C35.4991 5.66891 35.3159 5.9501 35.196 6.25971C35.0598 6.62172 34.9864 7.00436 34.9791 7.3911C34.9568 7.88974 34.9501 8.04767 34.9501 9.31214C34.9501 10.5766 34.9501 10.7382 34.9791 11.2332C34.9868 11.6205 35.0598 12.0026 35.196 12.3656C35.3161 12.6751 35.4994 12.9562 35.7342 13.1909C35.9691 13.4255 36.2503 13.6086 36.5599 13.7284C36.921 13.8699 37.3037 13.9487 37.6913 13.9615C38.1899 13.9837 38.3479 13.9905 39.6123 13.9905C40.8768 13.9905 41.0389 13.9905 41.5334 13.9615C41.9202 13.9538 42.303 13.8805 42.6653 13.7445C42.9748 13.6244 43.2558 13.4412 43.4906 13.2064C43.7253 12.9717 43.9086 12.6906 44.0286 12.3811C44.1648 12.0187 44.2378 11.6365 44.2456 11.2487C44.2679 10.7506 44.2746 10.5927 44.2746 9.32767C44.2736 8.06321 44.2736 7.90269 44.2446 7.40715ZM39.6087 11.7033C38.2863 11.7033 37.2149 10.632 37.2149 9.30955C37.2149 7.98709 38.2863 6.91576 39.6087 6.91576C40.2436 6.91576 40.8525 7.16796 41.3014 7.61689C41.7503 8.06581 42.0025 8.67468 42.0025 9.30955C42.0025 9.94442 41.7503 10.5533 41.3014 11.0022C40.8525 11.4511 40.2436 11.7033 39.6087 11.7033ZM42.0978 7.38541C41.7886 7.38541 41.5396 7.13583 41.5396 6.82722C41.5396 6.75395 41.554 6.6814 41.5821 6.61371C41.6101 6.54602 41.6512 6.48451 41.703 6.4327C41.7548 6.3809 41.8163 6.3398 41.884 6.31176C41.9517 6.28372 42.0242 6.26929 42.0975 6.26929C42.1708 6.26929 42.2433 6.28372 42.311 6.31176C42.3787 6.3398 42.4402 6.3809 42.492 6.4327C42.5438 6.48451 42.5849 6.54602 42.613 6.61371C42.641 6.6814 42.6554 6.75395 42.6554 6.82722C42.6554 7.13583 42.4059 7.38541 42.0978 7.38541Z" fill="white"/>
<path d="M39.6088 10.8638C40.4676 10.8638 41.1637 10.1676 41.1637 9.30886C41.1637 8.45008 40.4676 7.75391 39.6088 7.75391C38.75 7.75391 38.0538 8.45008 38.0538 9.30886C38.0538 10.1676 38.75 10.8638 39.6088 10.8638Z" fill="white"/>
</svg>
