<svg width="66" height="66" viewBox="0 0 66 66" fill="none" xmlns="http://www.w3.org/2000/svg">
<g clip-path="url(#clip0_127_6196)">
<path d="M16.4447 37.3984L8.604 59.6316L16.4925 59.5548L26.2211 37.3984H16.4447Z" fill="#80AAFF"/>
<path d="M26.2207 37.3984L20.0985 60.7936L26.2645 65.8601L32.9997 46.1534V37.3984H26.2207Z" fill="#80AAFF"/>
<path d="M24.092 37.3984L16.4929 59.5548L18.5672 59.5347L20.0993 60.7936L28.1233 37.3984H24.092Z" fill="#EAF1FF"/>
<path d="M49.556 37.3984L57.3967 59.6316L49.5082 59.5548L39.7795 37.3984H49.556Z" fill="#6680FF"/>
<path d="M39.7795 37.3984L45.9017 60.7936L39.7358 65.8601L33.0005 46.1534V37.3984H39.7795Z" fill="#6680FF"/>
<path d="M41.9086 37.3984L49.5077 59.5548L47.4335 59.5347L45.9013 60.7936L37.8773 37.3984H41.9086Z" fill="#B3CCFF"/>
<path d="M32.9994 2.76562L31.6436 23.9077L32.9994 44.2448C44.4536 44.2448 53.739 34.9594 53.739 23.5053C53.739 12.051 44.4536 2.76562 32.9994 2.76562Z" fill="#EAF1FF"/>
<path d="M12.2599 23.5053C12.2599 34.9594 21.5453 44.2448 32.9995 44.2448V2.76562C21.5453 2.76562 12.2599 12.051 12.2599 23.5053Z" fill="#F9F9F9"/>
<path d="M55.6457 23.5056C55.6457 11.0184 45.4865 0.859375 32.9994 0.859375L31.6436 2.21522L32.9994 4.67258C43.3839 4.67258 51.8324 13.121 51.8324 23.5056C51.8324 33.8901 43.3839 42.3385 32.9994 42.3385L31.6436 44.2451L32.9994 46.1517C45.4865 46.1517 55.6457 35.9927 55.6457 23.5056Z" fill="#FDAE02"/>
<path d="M32.9997 42.3385C22.6152 42.3385 14.1668 33.8901 14.1668 23.5056C14.1668 13.121 22.6152 4.67258 32.9997 4.67258V0.859375C20.5126 0.859375 10.3536 11.0184 10.3536 23.5056C10.3536 35.9927 20.5126 46.1517 32.9997 46.1517V42.3385Z" fill="#FDCB02"/>
<path d="M44.3975 15.9539L38.4611 17.895L33.0003 13.2754L31.6445 22.5518L33.0003 32.1271H44.3975V15.9539Z" fill="#FD9002"/>
<path d="M33.0003 13.2754L27.5395 17.895L21.6031 15.9539V32.1271H33.0003V13.2754Z" fill="#FDAE02"/>
</g>
<defs>
<clipPath id="clip0_127_6196">
<rect width="65" height="65" fill="white" transform="translate(0.5 0.859375)"/>
</clipPath>
</defs>
</svg>
