<svg width="66" height="66" viewBox="0 0 66 66" fill="none" xmlns="http://www.w3.org/2000/svg">
<g clip-path="url(#clip0_127_6141)">
<path d="M16.5615 36.8601V47.4895H53.9195C54.9868 47.4895 55.8521 46.6242 55.8521 45.5569C55.8521 44.6185 55.8521 37.7967 55.8521 36.8601L36.2067 34.2832L16.5615 36.8601Z" fill="#8B9BA9"/>
<path d="M51.9867 36.3457V43.6252H16.5615V47.4904H53.9195C54.9868 47.4904 55.8521 46.6251 55.8521 45.5578C55.8521 44.6685 55.8521 37.7333 55.8521 36.8611L51.9867 36.3457Z" fill="#6C7A88"/>
<path d="M57.5918 11.3926H22.3601C21.2928 11.3926 20.4275 12.2579 20.4275 13.3252V19.3478H7.53898C5.73109 19.3478 4.16465 20.6012 3.76795 22.365L2.30522 28.8697C1.92952 30.5405 1.73987 32.2478 1.73987 33.9604V47.4898H20.4275C20.4275 47.1753 20.4275 42.3953 20.4275 36.8605H57.5919C58.6593 36.8605 59.5245 35.9952 59.5245 34.9279V13.3252C59.5244 12.2577 58.6593 11.3926 57.5918 11.3926Z" fill="#FF7E40"/>
<path d="M64.6784 28.5608H59.5245V25.0928H62.1015C62.6353 25.0928 63.0678 24.6602 63.0678 24.1265C63.0678 23.5929 62.6353 23.1602 62.1015 23.1602H59.5245V19.6922H63.3899C63.9237 19.6922 64.3562 19.2596 64.3562 18.7259C64.3562 18.1923 63.9237 17.7596 63.3899 17.7596H59.5245V14.2915H64.6784C65.2122 14.2915 65.6447 13.8588 65.6447 13.3252C65.6447 12.7915 65.2122 12.3589 64.6784 12.3589H59.2639C58.9296 11.7818 58.3069 11.3926 57.5919 11.3926H55.6593V32.9954H20.4275C20.4275 26.1969 20.4275 19.5313 20.4275 19.3477H16.5623V36.8606H13.6634C10.8462 36.8606 8.28342 37.9644 6.37941 39.7595H1.73987V47.4899H20.4275C20.4275 47.2277 20.4275 42.4259 20.4275 36.8606H32.3393H57.5919C58.3069 36.8606 58.9296 36.4714 59.2639 35.8943H63.3899C63.9237 35.8943 64.3562 35.4617 64.3562 34.928C64.3562 34.3943 63.9237 33.9617 63.3899 33.9617H59.5245V30.4936H64.6784C65.2122 30.4936 65.6447 30.0609 65.6447 29.5273C65.6447 28.9936 65.2122 28.5608 64.6784 28.5608Z" fill="#FF6344"/>
<path d="M1.61071 47.4902H8.68354V43.625H1.61071C1.07706 43.625 0.644409 44.0576 0.644409 44.5913V46.5239C0.644409 47.0577 1.07706 47.4902 1.61071 47.4902Z" fill="#8B9BA9"/>
<path d="M16.5623 23.2129H7.30846L5.47107 31.3836H16.5623V23.2129Z" fill="#9DC6FB"/>
<path d="M12.9276 27.5184H6.34023L5.47107 31.3836H16.5623V23.2129H12.9276V27.5184Z" fill="#80B4FB"/>
<path d="M46.5111 54.2548C50.2468 54.2548 53.2752 51.2264 53.2752 47.4907C53.2752 43.755 50.2468 40.7266 46.5111 40.7266C42.7754 40.7266 39.7469 43.755 39.7469 47.4907C39.7469 51.2264 42.7754 54.2548 46.5111 54.2548Z" fill="#4D5967"/>
<path d="M47.8945 40.8691C47.1016 42.3339 47.3233 44.2026 48.5615 45.4407L44.4618 49.5404C43.2238 48.3022 41.3551 48.0803 39.8901 48.8734C40.5302 51.942 43.2557 54.2546 46.5116 54.2546C50.2414 54.2546 53.2758 51.2203 53.2758 47.4905C53.2756 44.2346 50.9631 41.5092 47.8945 40.8691Z" fill="#35404A"/>
<path d="M46.5109 50.3896C48.1119 50.3896 49.4098 49.0917 49.4098 47.4907C49.4098 45.8897 48.1119 44.5918 46.5109 44.5918C44.9098 44.5918 43.6119 45.8897 43.6119 47.4907C43.6119 49.0917 44.9098 50.3896 46.5109 50.3896Z" fill="#FFF9EB"/>
<path d="M13.6632 54.2548C17.3989 54.2548 20.4273 51.2264 20.4273 47.4907C20.4273 43.755 17.3989 40.7266 13.6632 40.7266C9.92745 40.7266 6.89905 43.755 6.89905 47.4907C6.89905 51.2264 9.92745 54.2548 13.6632 54.2548Z" fill="#4D5967"/>
<path d="M15.0463 40.8691C14.2534 42.3339 14.4752 44.2026 15.7133 45.4407L11.6136 49.5404C10.3756 48.3022 8.50691 48.0803 7.04199 48.8734C7.68207 51.942 10.4076 54.2546 13.6635 54.2546C17.3933 54.2546 20.4276 51.2203 20.4276 47.4905C20.4276 44.2346 18.115 41.5092 15.0463 40.8691Z" fill="#35404A"/>
<path d="M13.6629 50.3896C15.264 50.3896 16.5619 49.0917 16.5619 47.4907C16.5619 45.8897 15.264 44.5918 13.6629 44.5918C12.0619 44.5918 10.764 45.8897 10.764 47.4907C10.764 49.0917 12.0619 50.3896 13.6629 50.3896Z" fill="#FFF9EB"/>
<path d="M30.2052 22.1938V23.1601H31.429C31.9627 23.1601 32.3951 23.5925 32.3951 24.1263C32.3951 24.6601 31.9627 25.0926 31.429 25.0926H30.2052V27.0249C30.2052 27.5587 29.7725 27.9912 29.239 27.9912C28.7055 27.9912 28.2729 27.5589 28.2729 27.0249V21.2278C28.2729 20.6941 28.7055 20.2617 29.239 20.2617H32.2019C32.7356 20.2617 33.168 20.6941 33.168 21.2278C33.168 21.7616 32.7356 22.1941 32.2019 22.1941H30.2052V22.1938Z" fill="#FFF9EB"/>
<path d="M39.4139 26.3448C39.7894 26.7236 39.7869 27.3355 39.4082 27.7112C39.2195 27.8978 38.9737 27.9912 38.7277 27.9912C38.4791 27.9912 38.2305 27.8959 38.0417 27.7054L36.409 26.0589H35.8936V27.0249C35.8936 27.5587 35.461 27.9912 34.9275 27.9912C34.3939 27.9912 33.9614 27.5589 33.9614 27.0249V21.2278C33.9614 20.6941 34.3939 20.2617 34.9275 20.2617H36.8118C38.401 20.2617 39.694 21.5621 39.694 23.1602C39.694 24.1031 39.2437 24.942 38.5481 25.4718L39.4139 26.3448ZM37.7616 23.1602C37.7616 22.6274 37.3354 22.1939 36.8118 22.1939H35.8936V24.1263H36.8118C37.3354 24.1263 37.7616 23.6929 37.7616 23.1602Z" fill="#FFF9EB"/>
<path d="M45.6829 27.0249C45.6829 27.5587 45.2505 27.9912 44.7168 27.9912H41.7539C41.2204 27.9912 40.7878 27.5589 40.7878 27.0249V21.2278C40.7878 20.6941 41.2204 20.2617 41.7539 20.2617H44.7168C45.2505 20.2617 45.6829 20.6941 45.6829 21.2278C45.6829 21.7616 45.2505 22.1941 44.7168 22.1941H42.7201V23.1604H43.9439C44.4776 23.1604 44.91 23.5928 44.91 24.1265C44.91 24.6603 44.4776 25.0929 43.9439 25.0929H42.7201V26.059H44.7168C45.2505 26.0589 45.6829 26.4913 45.6829 27.0249Z" fill="#FFF9EB"/>
<path d="M51.6785 27.0249C51.6785 27.5587 51.2461 27.9912 50.7124 27.9912H47.7495C47.216 27.9912 46.7834 27.5589 46.7834 27.0249V21.2278C46.7834 20.6941 47.216 20.2617 47.7495 20.2617H50.7124C51.2461 20.2617 51.6785 20.6941 51.6785 21.2278C51.6785 21.7616 51.2461 22.1941 50.7124 22.1941H48.7157V23.1604H49.9395C50.4732 23.1604 50.9056 23.5928 50.9056 24.1265C50.9056 24.6603 50.4732 25.0929 49.9395 25.0929H48.7157V26.059H50.7124C51.2461 26.0589 51.6785 26.4913 51.6785 27.0249Z" fill="#FFF9EB"/>
</g>
<defs>
<clipPath id="clip0_127_6141">
<rect width="65" height="65" fill="white" transform="translate(0.644409 0.324219)"/>
</clipPath>
</defs>
</svg>
